<svg width="40" height="38" viewBox="0 0 40 38" fill="none" xmlns="http://www.w3.org/2000/svg">
<path fill-rule="evenodd" clip-rule="evenodd" d="M19.8158 3.95703C17.0756 3.95655 14.3832 4.6442 12.0073 5.95133C9.63148 7.25847 7.65525 9.13938 6.27589 11.4063C4.89654 13.6733 4.16231 16.2469 4.1465 18.8705C4.13069 21.494 4.83384 24.0756 6.18578 26.3577C7.09956 25.2206 8.2742 24.3 9.6189 23.667C10.9636 23.034 12.4423 22.7055 13.9408 22.707H25.6908C27.1892 22.7055 28.668 23.034 30.0127 23.667C31.3574 24.3 32.532 25.2206 33.4458 26.3577C34.7977 24.0756 35.5009 21.494 35.4851 18.8705C35.4692 16.2469 34.735 13.6733 33.3557 11.4063C31.9763 9.13938 30.0001 7.25847 27.6242 5.95133C25.2483 4.6442 22.556 3.95655 19.8158 3.95703ZM35.3708 30.3495C37.9892 27.0813 39.4054 23.076 39.3991 18.957C39.3991 8.60141 30.6317 0.207031 19.8158 0.207031C8.9999 0.207031 0.232444 8.60141 0.232444 18.957C0.225979 23.076 1.64226 27.0814 4.26074 30.3495L4.25094 30.3833L4.94615 31.1577C6.78284 33.2136 9.06332 34.8638 11.6304 35.9945C14.1975 37.1252 16.9901 37.7094 19.8158 37.707C23.786 37.714 27.6636 36.5594 30.9293 34.3977C32.3216 33.4767 33.584 32.3877 34.6854 31.1577L35.3806 30.3833L35.3708 30.3495ZM19.8158 7.70703C18.2576 7.70703 16.7633 8.29966 15.6615 9.35456C14.5597 10.4094 13.9408 11.8402 13.9408 13.332C13.9408 14.8239 14.5597 16.2546 15.6615 17.3095C16.7633 18.3644 18.2576 18.957 19.8158 18.957C21.3739 18.957 22.8683 18.3644 23.97 17.3095C25.0718 16.2546 25.6908 14.8239 25.6908 13.332C25.6908 11.8402 25.0718 10.4094 23.97 9.35456C22.8683 8.29966 21.3739 7.70703 19.8158 7.70703Z" fill="black"/>
</svg>
