<svg width="16" height="17" viewBox="0 0 16 17" fill="none" xmlns="http://www.w3.org/2000/svg">
<path d="M13.9348 8.85576C13.9996 8.68561 14.0166 8.49837 13.9835 8.31775C13.9504 8.13712 13.8687 7.97121 13.7487 7.84103L10.32 4.11722C10.2409 4.0283 10.1463 3.95738 10.0417 3.90859C9.93713 3.8598 9.82465 3.83412 9.71083 3.83304C9.59701 3.83197 9.48414 3.85552 9.37879 3.90233C9.27344 3.94914 9.17774 4.01827 9.09725 4.10568C9.01677 4.19309 8.95312 4.29703 8.91002 4.41144C8.86692 4.52585 8.84523 4.64844 8.84622 4.77205C8.84721 4.89566 8.87085 5.01782 8.91578 5.1314C8.9607 5.24498 9.02601 5.34771 9.10788 5.43358L11.0743 7.56919H2.8572C2.62985 7.56919 2.41182 7.66727 2.25107 7.84186C2.09031 8.01644 2 8.25324 2 8.50014C2 8.74704 2.09031 8.98383 2.25107 9.15842C2.41182 9.33301 2.62985 9.43109 2.8572 9.43109H11.0743L9.10874 11.5658C9.02686 11.6516 8.96156 11.7544 8.91664 11.8679C8.87171 11.9815 8.84806 12.1037 8.84707 12.2273C8.84609 12.3509 8.86777 12.4735 8.91088 12.5879C8.95398 12.7023 9.01763 12.8063 9.09811 12.8937C9.1786 12.9811 9.2743 13.0502 9.37965 13.097C9.485 13.1438 9.59787 13.1674 9.71169 13.1663C9.82551 13.1652 9.93799 13.1396 10.0426 13.0908C10.1472 13.042 10.2417 12.971 10.3208 12.8821L13.7496 9.15832C13.829 9.07165 13.8919 8.96884 13.9348 8.85576Z" fill="#023047"/>
</svg>
