<svg width="32" height="24" viewBox="0 0 32 24" fill="none" xmlns="http://www.w3.org/2000/svg">
<g id="Group">
<path id="Vector" d="M24.6173 4.36328H2.46349C1.10402 4.36328 0.00195312 5.34011 0.00195312 6.5451V21.8178C0.00195312 23.0228 1.10402 23.9996 2.46349 23.9996H24.6173C25.9768 23.9996 27.0789 23.0228 27.0789 21.8178V6.5451C27.0789 5.34011 25.9768 4.36328 24.6173 4.36328Z" fill="black"/>
<path id="Vector_2" d="M29.5392 0H6.1546C5.82818 0 5.51513 0.114935 5.28431 0.31952C5.0535 0.524105 4.92383 0.801582 4.92383 1.09091C4.92383 1.38024 5.0535 1.65771 5.28431 1.8623C5.51513 2.06688 5.82818 2.18182 6.1546 2.18182H29.5392V18.5455C29.5392 18.8348 29.6689 19.1123 29.8997 19.3168C30.1305 19.5214 30.4436 19.6364 30.77 19.6364C31.0964 19.6364 31.4095 19.5214 31.6403 19.3168C31.8711 19.1123 32.0008 18.8348 32.0008 18.5455V2.18182C32.0008 1.60316 31.7414 1.04821 31.2798 0.63904C30.8182 0.229869 30.1921 0 29.5392 0Z" fill="black"/>
</g>
</svg>
