<svg width="20" height="21" viewBox="0 0 20 21" fill="none" xmlns="http://www.w3.org/2000/svg">
<path d="M16.3913 11.4214L18.0903 5.77298C18.1263 5.6529 18.1325 5.52651 18.1083 5.40377C18.0842 5.28103 18.0304 5.16528 17.9512 5.06563C17.872 4.96599 17.7695 4.88516 17.6519 4.82952C17.5342 4.77388 17.4045 4.74493 17.2731 4.74497H6.03444L5.529 2.92537C5.48117 2.75308 5.37464 2.60067 5.22605 2.49192C5.07745 2.38318 4.89514 2.32421 4.70755 2.32422H2.8319C2.60661 2.32422 2.39054 2.40923 2.23123 2.56056C2.07192 2.71189 1.98242 2.91713 1.98242 3.13114C1.98242 3.34514 2.07192 3.55039 2.23123 3.70171C2.39054 3.85304 2.60661 3.93805 2.8319 3.93805H4.05345L4.56314 5.75765V5.76572V5.77298L6.2621 11.4214L6.89581 13.8308C6.47629 14.0075 6.11477 14.2886 5.84945 14.6443C5.58412 14.9999 5.42483 15.4171 5.38839 15.8516C5.35195 16.2862 5.43972 16.722 5.64243 17.1131C5.84514 17.5042 6.15526 17.836 6.54006 18.0736C6.92485 18.3111 7.37003 18.4456 7.8286 18.4627C8.28716 18.4798 8.74209 18.379 9.14534 18.1709C9.54859 17.9628 9.8852 17.6552 10.1196 17.2804C10.3541 16.9057 10.4776 16.4777 10.4772 16.0418C10.4744 15.7663 10.4215 15.4933 10.3209 15.2349H12.3325C12.2319 15.4933 12.179 15.7663 12.1762 16.0418C12.1762 16.5206 12.3256 16.9886 12.6057 17.3867C12.8857 17.7848 13.2837 18.0951 13.7494 18.2783C14.215 18.4615 14.7275 18.5094 15.2218 18.416C15.7161 18.3226 16.1702 18.0921 16.5266 17.7535C16.883 17.415 17.1258 16.9836 17.2241 16.5141C17.3224 16.0445 17.272 15.5578 17.0791 15.1154C16.8862 14.6731 16.5595 14.295 16.1405 14.029C15.7214 13.763 15.2287 13.6211 14.7246 13.6211H8.59138L8.16664 12.0072H15.5741C15.7589 12.0073 15.9386 11.9501 16.086 11.8444C16.2335 11.7387 16.3407 11.5902 16.3913 11.4214ZM14.7246 15.2349C14.8926 15.2349 15.0569 15.2822 15.1966 15.3709C15.3363 15.4595 15.4451 15.5856 15.5094 15.733C15.5737 15.8805 15.5906 16.0427 15.5578 16.1992C15.525 16.3557 15.4441 16.4995 15.3253 16.6124C15.2065 16.7252 15.0551 16.8021 14.8904 16.8332C14.7256 16.8643 14.5548 16.8484 14.3995 16.7873C14.2443 16.7262 14.1116 16.6228 14.0183 16.4901C13.925 16.3574 13.8751 16.2014 13.8751 16.0418C13.8751 15.8278 13.9646 15.6225 14.124 15.4712C14.2833 15.3199 14.4993 15.2349 14.7246 15.2349ZM8.77826 16.0418C8.77826 16.2014 8.72844 16.3574 8.6351 16.4901C8.54176 16.6228 8.40909 16.7262 8.25387 16.7873C8.09864 16.8484 7.92784 16.8643 7.76306 16.8332C7.59827 16.8021 7.44691 16.7252 7.32811 16.6124C7.20931 16.4995 7.1284 16.3557 7.09563 16.1992C7.06285 16.0427 7.07967 15.8805 7.14397 15.733C7.20826 15.5856 7.31714 15.4595 7.45684 15.3709C7.59653 15.2822 7.76077 15.2349 7.92878 15.2349C8.15408 15.2349 8.37015 15.3199 8.52946 15.4712C8.68876 15.6225 8.77826 15.8278 8.77826 16.0418ZM13.0257 8.77955H12.1762V9.58647C12.1762 9.80048 12.0867 10.0057 11.9274 10.157C11.7681 10.3084 11.552 10.3934 11.3267 10.3934C11.1014 10.3934 10.8853 10.3084 10.726 10.157C10.5667 10.0057 10.4772 9.80048 10.4772 9.58647V8.77955H9.62774C9.40245 8.77955 9.18638 8.69454 9.02707 8.54321C8.86776 8.39188 8.77826 8.18664 8.77826 7.97263C8.77826 7.75863 8.86776 7.55338 9.02707 7.40206C9.18638 7.25073 9.40245 7.16572 9.62774 7.16572H10.4772V6.3588C10.4772 6.14479 10.5667 5.93955 10.726 5.78823C10.8853 5.6369 11.1014 5.55188 11.3267 5.55188C11.552 5.55188 11.7681 5.6369 11.9274 5.78823C12.0867 5.93955 12.1762 6.14479 12.1762 6.3588V7.16572H13.0257C13.251 7.16572 13.467 7.25073 13.6263 7.40206C13.7856 7.55338 13.8751 7.75863 13.8751 7.97263C13.8751 8.18664 13.7856 8.39188 13.6263 8.54321C13.467 8.69454 13.251 8.77955 13.0257 8.77955Z" fill="#023047"/>
</svg>
