<svg width="31" height="30" viewBox="0 0 31 30" fill="none" xmlns="http://www.w3.org/2000/svg">
<path d="M11.9844 12.8906H15.7344V22.9688" stroke="black" stroke-width="2.34375" stroke-linecap="round" stroke-linejoin="round"/>
<path d="M11.457 23.2031H19.543" stroke="black" stroke-width="2.34375" stroke-miterlimit="10" stroke-linecap="round"/>
<path d="M15.5 9.375C15.1292 9.375 14.7666 9.26503 14.4583 9.05901C14.15 8.85298 13.9096 8.56014 13.7677 8.21753C13.6258 7.87492 13.5887 7.49792 13.661 7.13421C13.7334 6.77049 13.912 6.4364 14.1742 6.17418C14.4364 5.91195 14.7705 5.73338 15.1342 5.66103C15.4979 5.58868 15.8749 5.62581 16.2175 5.76773C16.5601 5.90964 16.853 6.14996 17.059 6.45831C17.265 6.76665 17.375 7.12916 17.375 7.5C17.375 7.99728 17.1775 8.4742 16.8258 8.82583C16.4742 9.17746 15.9973 9.375 15.5 9.375Z" fill="black"/>
</svg>
