<svg width="229" height="204" viewBox="0 0 229 204" fill="none" xmlns="http://www.w3.org/2000/svg">
<g id="Group 17">
<path id="Vector" d="M35.6231 22.6064C32.9238 22.6064 30.335 23.5591 28.4263 25.255C26.5176 26.9508 25.4453 29.2508 25.4453 31.649V67.8193H76.3342V22.6064H35.6231ZM63.612 56.5161H38.1675V33.9096H63.612V56.5161Z" fill="black"/>
<path id="Vector_2" d="M25.4453 171.809C25.4453 174.207 26.5176 176.507 28.4263 178.203C30.335 179.899 32.9238 180.851 35.6231 180.851H76.3342V135.639H25.4453V171.809ZM38.1675 146.942H63.612V169.548H38.1675V146.942Z" fill="black"/>
<path id="Vector_3" d="M152.664 180.851H193.375C196.074 180.851 198.663 179.899 200.572 178.203C202.481 176.507 203.553 174.207 203.553 171.809V135.639H152.664V180.851ZM165.386 146.942H190.831V169.548H165.386V146.942Z" fill="black"/>
<path id="Vector_4" d="M193.375 22.6064H152.664V67.8193H203.553V31.649C203.553 29.2508 202.481 26.9508 200.572 25.255C198.663 23.5591 196.074 22.6064 193.375 22.6064ZM190.831 56.5161H165.386V33.9096H190.831V56.5161Z" fill="black"/>
<path id="Vector_5" d="M127.222 56.5161V45.2129H101.777V67.8193H114.5V56.5161H127.222Z" fill="black"/>
<path id="Vector_6" d="M76.334 67.8184H89.0562V79.1216H76.334V67.8184Z" fill="black"/>
<path id="Vector_7" d="M89.0566 79.123H114.501V90.4263H89.0566V79.123Z" fill="black"/>
<path id="Vector_8" d="M127.223 33.9096V45.2129H139.946V22.6064H89.0566V45.2129H101.779V33.9096H127.223Z" fill="black"/>
<path id="Vector_9" d="M21.9219 17.4688H34.6441V40.0752H21.9219V17.4688Z" fill="black"/>
<path id="Vector_10" d="M76.3342 90.4263V101.729H63.612V79.123H50.8898V101.729H38.1675V113.033H25.4453V124.336H50.8898V113.033H63.612V124.336H76.3342V113.033H89.0564V90.4263H76.3342Z" fill="black"/>
<path id="Vector_11" d="M127.222 90.4252H139.944V101.728H152.667V90.4252H165.389V79.122H139.944V56.5156H127.222V67.8188H114.5V79.122H127.222V90.4252Z" fill="black"/>
<path id="Vector_12" d="M114.501 169.547H89.0566V180.851H139.946V169.547H127.223V158.244H114.501V169.547Z" fill="black"/>
<path id="Vector_13" d="M139.944 113.031V101.728H127.222V90.4248H114.5V101.728H101.777V113.031H114.5V124.334H127.222V113.031H139.944Z" fill="black"/>
<path id="Vector_14" d="M190.836 113.032H203.558V124.335H190.836V113.032Z" fill="black"/>
<path id="Vector_15" d="M190.833 79.123H178.111V90.4263H165.389V101.729H178.111V113.033H190.833V101.729H203.555V90.4263H190.833V79.123Z" fill="black"/>
<path id="Vector_16" d="M127.223 124.335H139.945V158.245H127.223V124.335Z" fill="black"/>
<path id="Vector_17" d="M89.0566 158.245H101.779V146.942H114.501V135.639H101.779V113.032H89.0566V158.245Z" fill="black"/>
</g>
</svg>
