<svg width="24" height="24" viewBox="0 0 24 24" fill="none" xmlns="http://www.w3.org/2000/svg">
<path d="M11.049 2.92708C11.349 2.00608 12.652 2.00608 12.951 2.92708L14.47 7.60108C14.5353 7.80157 14.6624 7.97626 14.833 8.10018C15.0037 8.22411 15.2091 8.29092 15.42 8.29108H20.335C21.304 8.29108 21.706 9.53108 20.923 10.1011L16.947 12.9891C16.7762 13.1132 16.6491 13.2883 16.5839 13.4891C16.5187 13.6899 16.5187 13.9063 16.584 14.1071L18.102 18.7811C18.402 19.7031 17.347 20.4691 16.564 19.8991L12.588 17.0111C12.4171 16.8869 12.2112 16.8199 12 16.8199C11.7887 16.8199 11.5829 16.8869 11.412 17.0111L7.43597 19.8991C6.65297 20.4691 5.59797 19.7021 5.89797 18.7811L7.41597 14.1071C7.48125 13.9063 7.48129 13.6899 7.41608 13.4891C7.35087 13.2883 7.22377 13.1132 7.05297 12.9891L3.07697 10.1011C2.29297 9.53108 2.69697 8.29108 3.66497 8.29108H8.57897C8.79002 8.29113 8.99568 8.22442 9.1665 8.10048C9.33732 7.97654 9.46455 7.80173 9.52997 7.60108L11.049 2.92708Z" stroke="black" stroke-width="2" stroke-linecap="round" stroke-linejoin="round"/>
</svg>
