<svg width="38" height="38" viewBox="0 0 38 38" fill="none" xmlns="http://www.w3.org/2000/svg">
<path d="M17.9561 5.70421C18.5614 3.76396 21.1905 3.76396 21.7938 5.70421L23.9527 12.6394C24.0846 13.0617 24.341 13.4297 24.6853 13.6908C25.0296 13.9519 25.4441 14.0926 25.8696 14.093H32.8548C34.81 14.093 35.6211 16.7052 34.0413 17.906L28.3917 22.191C28.0467 22.4523 27.7898 22.8209 27.6579 23.244C27.526 23.6671 27.5257 24.123 27.6572 24.5463L29.8162 31.4814C30.4215 33.4217 28.2928 35.0375 26.7089 33.8367L21.0593 29.5517C20.7147 29.2905 20.2998 29.1498 19.8739 29.1498C19.4481 29.1498 19.0332 29.2905 18.6885 29.5517L13.039 33.8367C11.4571 35.0375 9.33044 33.4217 9.93373 31.4814L12.0927 24.5463C12.2242 24.123 12.2239 23.6671 12.092 23.244C11.9601 22.8209 11.7032 22.4523 11.3582 22.191L5.71068 17.9081C4.13082 16.7073 4.94395 14.0951 6.89709 14.0951H13.8804C14.3062 14.0952 14.7211 13.9546 15.0658 13.6935C15.4105 13.4324 15.6672 13.0642 15.7992 12.6415L17.9581 5.70631L17.9561 5.70421Z" fill="#FFB703"/>
</svg>
