<svg width="128" height="128" viewBox="0 0 128 128" fill="none" xmlns="http://www.w3.org/2000/svg">
<path d="M70.7778 43.6667L91.1111 64M91.1111 64L70.7778 84.3333M91.1111 64H36.8889M125 64C125 72.0106 123.422 79.9428 120.357 87.3437C117.291 94.7445 112.798 101.469 107.134 107.134C101.469 112.798 94.7445 117.291 87.3437 120.357C79.9428 123.422 72.0106 125 64 125C55.9894 125 48.0572 123.422 40.6563 120.357C33.2554 117.291 26.5309 112.798 20.8665 107.134C15.2021 101.469 10.7089 94.7445 7.64335 87.3437C4.57781 79.9428 3 72.0106 3 64C3 47.8218 9.42677 32.3062 20.8665 20.8665C32.3062 9.42677 47.8218 3 64 3C80.1782 3 95.6938 9.42677 107.134 20.8665C118.573 32.3062 125 47.8218 125 64Z" stroke="white" stroke-width="5" stroke-linecap="round" stroke-linejoin="round"/>
</svg>
