<svg width="33" height="24" viewBox="0 0 33 24" fill="none" xmlns="http://www.w3.org/2000/svg">
<path id="Vector" d="M30.362 4.36364H3.96195C3.61187 4.36364 3.27612 4.2487 3.02857 4.04412C2.78102 3.83953 2.64195 3.56205 2.64195 3.27273C2.64195 2.9834 2.78102 2.70592 3.02857 2.50134C3.27612 2.29675 3.61187 2.18182 3.96195 2.18182H26.402C26.752 2.18182 27.0878 2.06688 27.3353 1.8623C27.5829 1.65771 27.722 1.38024 27.722 1.09091C27.722 0.801582 27.5829 0.524105 27.3353 0.31952C27.0878 0.114935 26.752 0 26.402 0H3.96195C2.9117 0 1.90445 0.344804 1.16181 0.95856C0.419166 1.57232 0.00195313 2.40475 0.00195312 3.27273V20.7273C0.00195312 21.5953 0.419166 22.4277 1.16181 23.0414C1.90445 23.6552 2.9117 24 3.96195 24H30.362C31.0621 24 31.7336 23.7701 32.2287 23.361C32.7238 22.9518 33.002 22.3968 33.002 21.8182V6.54545C33.002 5.9668 32.7238 5.41185 32.2287 5.00268C31.7336 4.59351 31.0621 4.36364 30.362 4.36364ZM24.422 15.2727C24.0303 15.2727 23.6475 15.1768 23.3219 14.9969C22.9963 14.8171 22.7425 14.5616 22.5927 14.2626C22.4428 13.9636 22.4036 13.6345 22.48 13.3171C22.5564 12.9997 22.745 12.7081 23.0219 12.4793C23.2988 12.2504 23.6516 12.0946 24.0357 12.0314C24.4198 11.9683 24.8179 12.0007 25.1797 12.1246C25.5415 12.2484 25.8507 12.4582 26.0683 12.7272C26.2858 12.9963 26.402 13.3127 26.402 13.6364C26.402 14.0704 26.1933 14.4866 25.822 14.7934C25.4507 15.1003 24.9471 15.2727 24.422 15.2727Z" fill="black"/>
</svg>
